<?xml version="1.0" standalone="no"?>
<!DOCTYPE svg PUBLIC "-//W3C//DTD SVG 20010904//EN"
 "http://www.w3.org/TR/2001/REC-SVG-20010904/DTD/svg10.dtd">
<svg version="1.0" xmlns="http://www.w3.org/2000/svg"
 width="512.000000pt" height="512.000000pt" viewBox="0 0 512.000000 512.000000"
 preserveAspectRatio="xMidYMid meet">
<metadata>
Created by potrace 1.11, written by Peter Selinger 2001-2013
</metadata>
<g transform="translate(0.000000,512.000000) scale(0.100000,-0.100000)"
fill="#000000" stroke="none">
<path d="M777 4724 c-86 -17 -165 -62 -237 -134 -79 -80 -95 -101 -117 -159
-9 -25 -19 -48 -22 -51 -9 -7 -11 -24 -15 -103 -3 -54 -7 -71 -17 -69 -8 1 -6
-4 4 -12 22 -17 23 -26 5 -37 -7 -5 -8 -9 -3 -9 16 0 12 -54 -5 -68 -13 -10
-13 -11 0 -7 21 7 21 -55 0 -73 -13 -11 -13 -11 0 -7 21 7 21 -55 0 -73 -13
-11 -13 -11 0 -7 11 4 15 -3 16 -30 0 -19 -3 -35 -8 -35 -5 0 -6 -5 -2 -11 11
-18 11 -119 -1 -119 -6 0 -7 -3 0 -8 16 -11 14 -56 -4 -70 -11 -8 -12 -11 -2
-10 15 3 24 -29 11 -37 -5 -3 -7 -12 -4 -20 11 -27 10 -175 -1 -175 -6 0 -7
-3 0 -8 16 -11 14 -56 -4 -70 -11 -8 -12 -11 -2 -10 15 3 24 -29 10 -38 -5 -3
-7 -10 -3 -15 3 -5 7 -35 8 -67 1 -41 -2 -60 -14 -70 -13 -10 -13 -11 0 -7 21
7 21 -55 0 -73 -13 -11 -13 -11 0 -7 21 7 21 -55 0 -73 -13 -11 -13 -11 0 -7
21 7 21 -55 0 -73 -13 -10 -13 -12 0 -10 20 4 21 -92 0 -110 -11 -9 -12 -12
-1 -10 15 3 24 -29 11 -37 -5 -3 -7 -11 -4 -19 11 -28 11 -96 0 -96 -7 0 -7
-3 -1 -8 16 -11 14 -56 -4 -70 -11 -8 -12 -11 -2 -10 15 3 24 -29 11 -37 -5
-3 -7 -11 -4 -19 11 -28 11 -96 0 -96 -7 0 -7 -3 -1 -8 16 -11 14 -56 -4 -70
-13 -10 -13 -12 -1 -10 20 4 21 -92 0 -110 -13 -11 -13 -11 0 -7 21 7 21 -55
0 -73 -13 -11 -13 -11 0 -7 21 7 21 -55 0 -73 -13 -11 -13 -11 0 -7 11 4 15
-3 16 -30 0 -19 -3 -35 -8 -35 -5 0 -6 -5 -2 -11 11 -18 11 -119 -1 -119 -6 0
-7 -3 0 -8 16 -11 14 -56 -4 -70 -11 -8 -12 -11 -2 -10 15 3 24 -29 11 -37 -5
-3 -7 -12 -4 -20 11 -27 10 -175 -1 -175 -6 0 -7 -3 0 -8 16 -11 14 -56 -4
-70 -11 -8 -12 -11 -2 -10 15 3 24 -29 10 -38 -5 -3 -7 -10 -3 -15 3 -5 7 -35
8 -67 1 -41 -2 -60 -14 -70 -13 -10 -13 -11 0 -7 21 7 21 -55 0 -73 -13 -11
-13 -11 0 -7 21 7 21 -55 0 -73 -13 -11 -13 -11 0 -7 21 7 21 -55 0 -73 -13
-11 -13 -12 0 -10 11 2 15 -8 15 -42 0 -25 -2 -49 -5 -55 -9 -19 -8 -35 1 -29
5 3 8 -5 8 -18 -2 -41 32 -139 59 -171 8 -9 11 -17 7 -17 -5 0 0 -7 11 -15 10
-8 15 -15 10 -15 -5 0 3 -9 18 -21 14 -11 23 -25 20 -31 -4 -6 -3 -9 2 -5 5 3
25 -10 44 -29 19 -19 37 -34 40 -34 4 0 17 -9 30 -20 13 -11 29 -20 37 -20 8
0 11 -5 7 -11 -4 -8 0 -9 15 -4 15 4 23 1 27 -10 6 -13 8 -14 15 -3 5 7 9 8 9
3 0 -6 15 -12 33 -14 77 -6 94 -8 105 -14 5 -4 13 -1 15 5 4 10 8 10 15 -1 9
-12 13 -12 26 -2 13 11 16 11 16 0 0 -12 2 -12 9 -1 11 18 12 18 38 4 12 -7
24 -9 26 -5 6 10 209 9 224 0 7 -4 14 -4 16 0 6 10 214 9 223 0 4 -4 13 -2 21
5 10 8 17 8 25 0 8 -8 17 -8 30 -1 10 5 18 6 18 1 0 -5 7 -9 15 -9 8 0 15 3
15 6 0 3 15 5 32 5 22 -1 32 -6 30 -15 -1 -8 5 -5 13 6 13 17 17 17 25 6 7
-12 11 -12 23 -2 12 9 16 9 20 -1 4 -8 8 -9 14 -3 13 16 68 11 65 -6 -1 -8 4
-6 13 6 13 17 17 17 25 6 7 -12 11 -12 24 -2 12 10 16 10 16 2 0 -7 5 -9 12
-5 16 10 99 12 119 2 9 -4 19 -4 23 0 10 9 166 9 166 -1 0 -5 5 -5 12 -1 17
11 99 12 120 2 9 -4 19 -5 22 0 2 4 40 6 83 6 100 -3 95 -2 88 -16 -4 -7 -1
-6 7 2 17 19 74 19 70 -1 -1 -8 4 -6 13 6 13 17 17 17 25 6 7 -12 11 -12 23
-2 12 9 16 9 20 -1 4 -8 8 -9 14 -3 13 16 68 11 65 -6 -1 -8 4 -6 13 6 13 17
17 17 25 6 7 -12 11 -12 24 -2 13 11 16 11 16 0 0 -12 2 -12 9 -1 11 18 12 18
38 4 12 -7 24 -9 26 -5 6 10 209 9 224 0 7 -4 14 -4 16 0 6 10 214 9 223 0 4
-4 13 -2 21 5 10 8 17 8 25 0 8 -8 17 -8 30 -1 10 5 18 6 18 1 0 -5 7 -9 15
-9 8 0 15 3 15 6 0 3 15 5 32 5 22 -1 32 -6 30 -15 -1 -8 5 -5 13 6 13 17 17
17 25 6 7 -12 11 -12 23 -2 12 9 16 9 20 -1 4 -8 8 -9 14 -3 13 16 68 11 65
-6 -1 -8 4 -6 13 6 13 17 17 17 25 6 7 -12 11 -12 24 -2 12 10 16 10 16 2 0
-7 5 -9 12 -5 16 10 99 12 119 2 9 -4 19 -4 23 0 10 9 166 9 166 -1 0 -5 5 -5
12 -1 18 11 68 10 68 -1 0 -7 3 -7 8 0 10 14 32 17 32 4 0 -8 5 -8 15 1 8 7
21 10 30 7 8 -4 17 -2 20 3 8 12 40 4 37 -10 -1 -6 2 -9 8 -5 6 3 7 11 4 17
-5 7 -1 9 9 5 10 -4 16 -2 14 5 -1 7 3 12 8 13 16 1 99 47 106 58 4 5 12 6 18
3 6 -4 10 -4 9 1 -5 13 85 102 96 96 5 -3 6 -1 2 5 -3 6 1 18 10 26 8 9 13 16
9 16 -3 0 2 12 13 28 11 15 25 45 33 67 12 37 14 48 18 91 1 9 6 12 14 8 10
-6 10 -4 0 7 -17 17 -17 32 0 23 9 -6 9 -5 0 7 -10 12 -10 18 -1 27 7 7 8 12
2 12 -6 0 -11 7 -11 15 0 8 5 15 11 15 7 0 7 3 1 8 -16 11 -14 56 4 70 11 8
12 11 2 10 -15 -3 -24 29 -11 37 5 3 5 18 0 34 -5 19 -4 33 3 40 7 7 7 11 1
11 -6 0 -11 7 -11 15 0 8 5 15 11 15 7 0 7 3 1 8 -16 11 -14 56 4 70 13 10 13
12 1 10 -21 -4 -21 132 0 150 11 9 12 12 1 10 -15 -3 -24 29 -11 37 5 3 5 18
0 34 -5 19 -4 33 3 40 7 7 7 11 1 11 -6 0 -11 7 -11 15 0 8 5 15 11 15 7 0 7
3 1 8 -16 11 -14 56 4 70 11 8 12 11 2 10 -15 -3 -24 29 -11 37 5 3 5 18 0 34
-5 19 -4 33 3 40 7 7 7 11 1 11 -6 0 -11 7 -11 15 0 8 5 15 11 15 7 0 7 3 1 8
-16 11 -14 56 4 70 13 10 13 12 1 10 -21 -4 -21 132 0 150 11 9 12 12 1 10
-15 -3 -24 29 -11 37 5 3 5 18 0 34 -5 19 -4 33 3 40 7 7 7 11 1 11 -6 0 -11
7 -11 15 0 8 5 15 11 15 7 0 7 3 1 8 -16 11 -14 56 4 70 11 8 12 11 2 10 -15
-3 -24 29 -11 37 5 3 5 18 0 34 -5 19 -4 33 3 40 7 7 7 11 1 11 -6 0 -11 7
-11 15 0 8 5 15 11 15 7 0 7 3 1 8 -16 11 -14 56 4 70 13 10 13 12 1 10 -21
-4 -21 132 0 150 11 9 12 12 1 10 -15 -3 -24 29 -11 37 5 3 5 18 0 34 -5 19
-4 33 3 40 7 7 7 11 1 11 -6 0 -11 7 -11 15 0 8 5 15 11 15 7 0 7 3 1 8 -16
11 -14 56 4 70 11 8 12 11 2 10 -15 -3 -24 29 -11 37 5 3 5 18 0 34 -5 19 -4
33 3 40 7 7 7 11 1 11 -6 0 -11 7 -11 15 0 8 5 15 11 15 7 0 7 3 1 8 -16 11
-14 56 4 70 13 10 13 12 1 10 -21 -4 -21 132 0 150 11 9 12 12 1 10 -15 -3
-24 29 -11 37 5 3 5 18 0 34 -5 19 -4 33 3 40 7 7 7 11 1 11 -6 0 -11 7 -11
15 0 8 5 15 11 15 7 0 7 3 1 8 -16 11 -14 56 4 70 11 8 12 11 2 10 -15 -3 -24
29 -11 37 5 3 5 18 0 34 -5 19 -4 33 3 40 7 7 7 11 1 11 -6 0 -11 7 -11 15 0
8 5 15 11 15 7 0 7 3 1 8 -16 11 -14 56 4 70 13 10 13 12 1 10 -21 -4 -21 132
0 150 11 9 12 12 1 10 -15 -3 -24 29 -11 37 5 3 5 18 0 34 -5 19 -4 33 3 40 8
8 8 11 0 11 -12 0 -12 24 -1 36 4 3 2 18 -3 32 -7 18 -6 28 3 34 9 5 10 11 3
16 -6 4 -11 35 -12 69 0 33 -3 65 -5 70 -3 4 -13 34 -23 66 -10 31 -22 57 -26
57 -5 0 -9 7 -9 15 0 8 -4 15 -10 15 -5 0 -10 5 -10 10 0 21 -76 97 -147 147
-42 30 -120 63 -168 71 -11 2 -804 4 -1761 5 -1243 2 -1758 -1 -1797 -9z m658
-723 c6 8 10 7 16 -2 6 -10 9 -11 9 -1 0 6 11 12 25 12 14 0 25 -6 25 -12 0
-9 4 -8 10 2 8 12 10 12 10 1 0 -8 3 -11 7 -8 3 4 13 1 21 -6 13 -10 14 -9 7
2 -6 10 -4 13 6 9 8 -3 31 -11 52 -19 20 -7 37 -17 37 -21 0 -4 6 -8 14 -8 8
0 26 -13 39 -30 14 -16 30 -30 36 -30 10 0 27 -39 23 -53 -1 -5 2 -6 7 -3 7 5
32 -40 37 -64 0 -3 4 -21 7 -40 11 -55 15 -110 8 -110 -3 0 -7 -15 -7 -32 -1
-18 -4 -42 -7 -53 -3 -11 -6 -26 -6 -33 -1 -7 -5 -10 -11 -7 -5 3 -7 0 -4 -8
3 -8 -2 -20 -11 -27 -8 -7 -15 -18 -15 -25 0 -18 -95 -97 -141 -118 -35 -16
-127 -34 -164 -31 -111 7 -187 38 -252 105 -44 44 -84 117 -87 156 0 13 -4 23
-7 23 -4 0 -7 30 -7 68 0 72 18 146 51 202 27 47 108 122 125 115 7 -2 11 -1
8 4 -7 10 42 33 55 26 5 -4 9 -1 9 6 0 8 5 7 17 -2 9 -8 14 -9 10 -2 -9 14 14
23 30 11 7 -6 14 -5 18 3z m2167 -10 c-11 15 -6 16 53 16 50 0 65 -3 61 -13
-3 -8 -1 -16 5 -19 5 -4 8 -1 7 7 -4 17 35 13 85 -9 27 -12 36 -21 32 -32 -5
-13 -4 -13 6 -4 10 10 23 1 61 -38 27 -28 47 -53 44 -56 -3 -3 1 -12 9 -19 7
-8 21 -40 30 -71 13 -45 14 -62 5 -76 -7 -12 -7 -17 -1 -12 7 4 11 -5 11 -24
0 -16 -5 -33 -10 -36 -7 -5 -8 -11 -1 -18 15 -19 -47 -176 -62 -160 -4 3 -7 2
-7 -4 0 -18 -85 -95 -110 -99 -3 0 -18 -6 -35 -13 -33 -14 -123 -29 -152 -25
-10 2 -38 6 -63 9 -119 17 -240 123 -265 233 -3 17 -6 33 -5 34 1 2 -3 15 -9
31 -7 18 -7 27 0 27 6 0 6 6 0 19 -6 10 -9 20 -6 22 2 2 5 22 8 44 7 67 29
126 44 121 8 -4 11 -1 7 5 -7 12 15 59 27 59 4 0 6 -9 4 -20 -2 -11 0 -18 5
-15 5 3 7 14 5 25 -5 24 43 73 63 65 7 -3 10 -1 7 5 -3 5 4 14 15 20 11 6 20
8 20 4 0 -3 8 0 17 7 14 12 16 12 9 -1 -5 -11 -4 -10 6 1 19 24 50 28 73 10
18 -15 19 -15 7 0z m-1011 -1071 c6 0 7 -6 3 -12 -5 -10 -4 -10 5 -2 12 11 74
7 67 -5 -2 -3 8 -6 23 -7 32 -1 114 -51 106 -64 -4 -6 1 -7 11 -3 12 4 15 3
10 -5 -4 -7 -1 -12 9 -12 9 0 14 -4 11 -9 -3 -5 1 -12 10 -15 9 -4 14 -13 10
-21 -3 -8 -2 -14 2 -12 4 1 8 -2 9 -7 1 -5 7 -12 14 -16 7 -5 13 -17 14 -27 0
-10 4 -23 7 -28 3 -6 9 -25 13 -44 5 -25 4 -32 -5 -26 -8 5 -7 0 2 -16 16 -28
16 -48 -6 -144 -7 -29 -39 -91 -62 -118 -107 -128 -310 -166 -463 -86 -72 37
-139 114 -132 152 1 5 -3 6 -9 2 -9 -5 -12 1 -9 21 0 4 -4 10 -9 13 -11 7 -29
142 -24 179 2 12 7 20 11 18 4 -3 6 7 5 22 -2 38 41 132 61 132 9 0 14 4 10 9
-3 6 2 16 10 23 9 7 24 20 33 29 47 43 184 91 212 74 5 -3 10 -1 10 5 0 7 7 9
16 6 9 -3 20 -6 25 -6z m-1001 -1105 c8 -2 17 -4 20 -5 3 -1 8 -2 13 -1 4 0 7
-3 7 -9 0 -5 7 -10 15 -10 8 0 15 -5 15 -11 0 -5 4 -8 8 -5 5 3 26 -11 47 -30
32 -29 36 -37 24 -46 -11 -8 -11 -9 3 -5 19 7 43 -17 33 -33 -4 -6 -1 -9 7 -8
8 2 13 -6 12 -19 0 -12 3 -20 7 -17 9 5 16 -17 28 -93 4 -29 5 -53 2 -53 -3 0
-7 -28 -7 -61 -1 -40 -6 -64 -15 -70 -8 -5 -11 -9 -6 -9 12 0 -31 -78 -50 -89
-10 -6 -14 -11 -9 -11 11 0 -15 -25 -62 -58 -102 -72 -318 -80 -393 -16 -8 8
-20 14 -26 14 -16 0 -54 46 -46 55 5 4 2 5 -4 1 -16 -9 -69 72 -85 129 -14 48
-19 185 -7 185 4 0 6 6 3 13 -3 8 1 27 7 43 7 16 13 34 15 41 4 23 56 83 67
76 5 -3 7 -1 3 5 -3 6 0 16 9 24 39 35 42 37 54 25 9 -9 11 -8 6 6 -6 15 -1
19 21 16 4 0 10 5 14 11 4 7 20 13 36 15 16 1 36 5 44 8 8 4 33 8 55 9 35 3
60 -1 135 -17z m2140 4 c0 -6 7 -8 16 -5 22 8 127 -41 118 -56 -4 -6 -3 -9 2
-5 15 9 47 -20 38 -35 -4 -7 -3 -10 1 -5 10 9 45 -21 45 -39 0 -7 5 -14 11
-16 5 -2 11 -10 13 -18 2 -8 6 -22 9 -30 23 -54 25 -68 14 -80 -8 -9 -8 -11
-1 -7 8 5 12 -10 13 -44 0 -37 -2 -48 -12 -43 -9 6 -9 4 -1 -7 5 -8 10 -18 9
-24 -2 -26 -30 -105 -37 -105 -4 0 -8 -7 -8 -15 0 -8 -5 -15 -11 -15 -5 0 -8
-4 -5 -9 6 -9 -62 -75 -105 -103 -70 -44 -215 -60 -304 -31 -86 27 -174 91
-159 115 4 7 3 8 -4 4 -14 -8 -54 53 -47 72 3 7 0 10 -5 7 -6 -3 -10 1 -10 9
0 26 -1 30 -10 41 -19 23 -10 208 11 220 4 3 6 12 2 20 -3 8 1 15 8 15 7 0 10
3 6 6 -14 15 97 139 114 128 5 -3 8 0 7 8 -2 7 4 13 12 13 8 0 21 6 28 13 7 6
19 12 25 13 20 1 49 7 53 11 2 2 40 5 84 6 54 2 80 -1 80 -9z"/>
<path d="M1536 3958 c3 -5 10 -6 15 -3 13 9 11 12 -6 12 -8 0 -12 -4 -9 -9z"/>
<path d="M1590 3941 c0 -6 4 -13 10 -16 6 -3 7 1 4 9 -7 18 -14 21 -14 7z"/>
<path d="M1633 3925 c0 -8 4 -12 9 -9 5 3 6 10 3 15 -9 13 -12 11 -12 -6z"/>
<path d="M1396 3922 c-3 -5 1 -9 9 -9 8 0 12 4 9 9 -3 4 -7 8 -9 8 -2 0 -6 -4
-9 -8z"/>
<path d="M1666 3922 c-3 -5 1 -9 9 -9 8 0 12 4 9 9 -3 4 -7 8 -9 8 -2 0 -6 -4
-9 -8z"/>
<path d="M1246 3898 c3 -5 10 -6 15 -3 13 9 11 12 -6 12 -8 0 -12 -4 -9 -9z"/>
<path d="M1730 3859 c0 -5 5 -7 10 -4 6 3 10 8 10 11 0 2 -4 4 -10 4 -5 0 -10
-5 -10 -11z"/>
<path d="M1776 3802 c-3 -5 1 -9 9 -9 8 0 12 4 9 9 -3 4 -7 8 -9 8 -2 0 -6 -4
-9 -8z"/>
<path d="M3590 3961 c0 -6 4 -12 8 -15 5 -3 9 1 9 9 0 8 -4 15 -9 15 -4 0 -8
-4 -8 -9z"/>
<path d="M3774 3942 c4 -3 14 -7 22 -8 9 -1 13 0 10 4 -4 3 -14 7 -22 8 -9 1
-13 0 -10 -4z"/>
<path d="M3415 3900 c3 -5 8 -10 11 -10 2 0 4 5 4 10 0 6 -5 10 -11 10 -5 0
-7 -4 -4 -10z"/>
<path d="M3325 3800 c-3 -6 1 -7 9 -4 18 7 21 14 7 14 -6 0 -13 -4 -16 -10z"/>
<path d="M2459 2888 c-5 -18 -6 -38 -1 -34 7 8 12 36 6 36 -2 0 -4 -1 -5 -2z"/>
<path d="M2715 2819 c-3 -4 2 -6 10 -5 21 3 28 13 10 13 -9 0 -18 -4 -20 -8z"/>
<path d="M2270 2761 c0 -6 4 -13 10 -16 6 -3 7 1 4 9 -7 18 -14 21 -14 7z"/>
<path d="M1429 1803 c-13 -16 -12 -17 4 -4 9 7 17 15 17 17 0 8 -8 3 -21 -13z"/>
<path d="M1533 1805 c0 -8 4 -12 9 -9 5 3 6 10 3 15 -9 13 -12 11 -12 -6z"/>
<path d="M1250 1739 c0 -5 5 -7 10 -4 6 3 10 8 10 11 0 2 -4 4 -10 4 -5 0 -10
-5 -10 -11z"/>
<path d="M1230 1681 c0 -6 4 -13 10 -16 6 -3 7 1 4 9 -7 18 -14 21 -14 7z"/>
<path d="M1190 1660 c0 -5 5 -10 11 -10 5 0 7 5 4 10 -3 6 -8 10 -11 10 -2 0
-4 -4 -4 -10z"/>
<path d="M3695 1791 c-3 -5 -2 -12 3 -15 5 -3 9 1 9 9 0 17 -3 19 -12 6z"/>
<path d="M3434 1736 c1 -8 5 -18 8 -22 4 -3 5 1 4 10 -1 8 -5 18 -8 22 -4 3
-5 -1 -4 -10z"/>
<path d="M466 518 c3 -4 9 -8 15 -8 5 0 9 4 9 8 0 5 -7 9 -15 9 -8 0 -12 -4
-9 -9z"/>
<path d="M4490 421 c0 -10 29 -36 34 -30 1 2 -6 12 -16 22 -10 9 -18 13 -18 8z"/>
<path d="M626 402 c-3 -5 1 -9 9 -9 8 0 12 4 9 9 -3 4 -7 8 -9 8 -2 0 -6 -4
-9 -8z"/>
<path d="M996 338 c3 -4 11 -5 19 -1 21 7 19 12 -4 10 -11 0 -18 -5 -15 -9z"/>
<path d="M1236 338 c3 -4 11 -5 19 -1 21 7 19 12 -4 10 -11 0 -18 -5 -15 -9z"/>
<path d="M1476 338 c3 -4 11 -5 19 -1 21 7 19 12 -4 10 -11 0 -18 -5 -15 -9z"/>
<path d="M1536 342 c-3 -5 1 -9 9 -9 8 0 12 4 9 9 -3 4 -7 8 -9 8 -2 0 -6 -4
-9 -8z"/>
<path d="M2036 338 c3 -4 11 -5 19 -1 21 7 19 12 -4 10 -11 0 -18 -5 -15 -9z"/>
<path d="M2156 342 c-3 -5 1 -9 9 -9 8 0 12 4 9 9 -3 4 -7 8 -9 8 -2 0 -6 -4
-9 -8z"/>
<path d="M2356 338 c3 -4 11 -5 19 -1 21 7 19 12 -4 10 -11 0 -18 -5 -15 -9z"/>
<path d="M2916 338 c3 -4 11 -5 19 -1 21 7 19 12 -4 10 -11 0 -18 -5 -15 -9z"/>
<path d="M3156 338 c3 -4 11 -5 19 -1 21 7 19 12 -4 10 -11 0 -18 -5 -15 -9z"/>
<path d="M3396 338 c3 -4 11 -5 19 -1 21 7 19 12 -4 10 -11 0 -18 -5 -15 -9z"/>
<path d="M3456 342 c-3 -5 1 -9 9 -9 8 0 12 4 9 9 -3 4 -7 8 -9 8 -2 0 -6 -4
-9 -8z"/>
<path d="M3956 338 c3 -4 11 -5 19 -1 21 7 19 12 -4 10 -11 0 -18 -5 -15 -9z"/>
<path d="M4076 342 c-3 -5 1 -9 9 -9 8 0 12 4 9 9 -3 4 -7 8 -9 8 -2 0 -6 -4
-9 -8z"/>
<path d="M4150 346 c0 -2 7 -7 16 -10 8 -3 12 -2 9 4 -6 10 -25 14 -25 6z"/>
<path d="M4226 342 c-3 -5 1 -9 9 -9 8 0 12 4 9 9 -3 4 -7 8 -9 8 -2 0 -6 -4
-9 -8z"/>
<path d="M4435 329 c-4 -6 -5 -12 -2 -15 2 -3 7 2 10 11 7 17 1 20 -8 4z"/>
<path d="M1630 320 c0 -5 5 -10 10 -10 6 0 10 5 10 10 0 6 -4 10 -10 10 -5 0
-10 -4 -10 -10z"/>
<path d="M1790 320 c0 -5 5 -10 10 -10 6 0 10 5 10 10 0 6 -4 10 -10 10 -5 0
-10 -4 -10 -10z"/>
<path d="M2590 320 c0 -5 5 -10 10 -10 6 0 10 5 10 10 0 6 -4 10 -10 10 -5 0
-10 -4 -10 -10z"/>
<path d="M2750 320 c0 -5 5 -10 10 -10 6 0 10 5 10 10 0 6 -4 10 -10 10 -5 0
-10 -4 -10 -10z"/>
<path d="M3550 320 c0 -5 5 -10 10 -10 6 0 10 5 10 10 0 6 -4 10 -10 10 -5 0
-10 -4 -10 -10z"/>
<path d="M3710 320 c0 -5 5 -10 10 -10 6 0 10 5 10 10 0 6 -4 10 -10 10 -5 0
-10 -4 -10 -10z"/>
</g>
</svg>
